<mxfile host="65bd71144e">
    <diagram id="NmeAFhfV7kqW0vbphRyI" name="ページ1">
        <mxGraphModel dx="843" dy="336" grid="1" gridSize="10" guides="1" tooltips="1" connect="1" arrows="1" fold="1" page="1" pageScale="1" pageWidth="827" pageHeight="1169" math="0" shadow="0">
            <root>
                <mxCell id="0"/>
                <mxCell id="1" parent="0"/>
                <mxCell id="6" value="" style="endArrow=none;html=1;rounded=0;curved=0;" edge="1" parent="1">
                    <mxGeometry width="50" height="50" relative="1" as="geometry">
                        <mxPoint x="160" y="240" as="sourcePoint"/>
                        <mxPoint x="740" y="240" as="targetPoint"/>
                        <Array as="points">
                            <mxPoint x="200" y="240"/>
                            <mxPoint x="200" y="280"/>
                            <mxPoint x="240" y="280"/>
                            <mxPoint x="240" y="240"/>
                            <mxPoint x="280" y="240"/>
                            <mxPoint x="280" y="280"/>
                            <mxPoint x="320" y="280"/>
                            <mxPoint x="320" y="240"/>
                            <mxPoint x="360" y="240"/>
                            <mxPoint x="360" y="280"/>
                            <mxPoint x="400" y="280"/>
                            <mxPoint x="400" y="240"/>
                            <mxPoint x="440" y="240"/>
                            <mxPoint x="440" y="280"/>
                            <mxPoint x="480" y="280"/>
                            <mxPoint x="480" y="240"/>
                            <mxPoint x="520" y="240"/>
                            <mxPoint x="520" y="280"/>
                            <mxPoint x="560" y="280"/>
                            <mxPoint x="560" y="240"/>
                            <mxPoint x="600" y="240"/>
                            <mxPoint x="600" y="280"/>
                            <mxPoint x="640" y="280"/>
                            <mxPoint x="640" y="240"/>
                            <mxPoint x="680" y="240"/>
                            <mxPoint x="680" y="280"/>
                            <mxPoint x="720" y="280"/>
                            <mxPoint x="720" y="240"/>
                        </Array>
                    </mxGeometry>
                </mxCell>
                <mxCell id="7" value="" style="endArrow=none;html=1;rounded=0;curved=0;" edge="1" parent="1">
                    <mxGeometry width="50" height="50" relative="1" as="geometry">
                        <mxPoint x="160" y="360" as="sourcePoint"/>
                        <mxPoint x="740" y="360" as="targetPoint"/>
                        <Array as="points">
                            <mxPoint x="180" y="360"/>
                            <mxPoint x="180" y="320"/>
                            <mxPoint x="230" y="320"/>
                            <mxPoint x="230" y="360"/>
                        </Array>
                    </mxGeometry>
                </mxCell>
                <mxCell id="12" value="" style="endArrow=none;html=1;rounded=0;curved=0;strokeColor=light-dark(#000000,#EDEDED);dashed=1;dashPattern=1 1;" edge="1" parent="1">
                    <mxGeometry width="50" height="50" relative="1" as="geometry">
                        <mxPoint x="160" y="400" as="sourcePoint"/>
                        <mxPoint x="740" y="440" as="targetPoint"/>
                        <Array as="points">
                            <mxPoint x="200" y="400"/>
                            <mxPoint x="210" y="440"/>
                            <mxPoint x="280" y="440"/>
                            <mxPoint x="290" y="400"/>
                            <mxPoint x="360" y="400"/>
                            <mxPoint x="370" y="440"/>
                            <mxPoint x="440" y="440"/>
                            <mxPoint x="450" y="400"/>
                            <mxPoint x="520" y="400"/>
                            <mxPoint x="530" y="440"/>
                            <mxPoint x="600" y="440"/>
                            <mxPoint x="610" y="400"/>
                            <mxPoint x="680" y="400"/>
                            <mxPoint x="690" y="440"/>
                        </Array>
                    </mxGeometry>
                </mxCell>
                <mxCell id="14" value="" style="endArrow=none;html=1;rounded=0;curved=0;strokeColor=light-dark(#000000,#EDEDED);dashed=1;dashPattern=1 1;" edge="1" parent="1">
                    <mxGeometry width="50" height="50" relative="1" as="geometry">
                        <mxPoint x="160" y="440" as="sourcePoint"/>
                        <mxPoint x="740" y="400" as="targetPoint"/>
                        <Array as="points">
                            <mxPoint x="200" y="440"/>
                            <mxPoint x="210" y="400"/>
                            <mxPoint x="280" y="400"/>
                            <mxPoint x="290" y="440"/>
                            <mxPoint x="360" y="440"/>
                            <mxPoint x="370" y="400"/>
                            <mxPoint x="440" y="400"/>
                            <mxPoint x="450" y="440"/>
                            <mxPoint x="520" y="440"/>
                            <mxPoint x="530" y="400"/>
                            <mxPoint x="600" y="400"/>
                            <mxPoint x="610" y="440"/>
                            <mxPoint x="680" y="440"/>
                            <mxPoint x="690" y="400"/>
                        </Array>
                    </mxGeometry>
                </mxCell>
                <mxCell id="15" value="00" style="text;html=1;align=center;verticalAlign=middle;whiteSpace=wrap;rounded=0;fontSize=16;fontFamily=Lucida Console;fontColor=#999999;" vertex="1" parent="1">
                    <mxGeometry x="210" y="410" width="60" height="30" as="geometry"/>
                </mxCell>
                <mxCell id="18" value="" style="endArrow=none;dashed=1;html=1;" edge="1" parent="1">
                    <mxGeometry width="50" height="50" relative="1" as="geometry">
                        <mxPoint x="200" y="320" as="sourcePoint"/>
                        <mxPoint x="200" y="290" as="targetPoint"/>
                    </mxGeometry>
                </mxCell>
                <mxCell id="19" value="" style="endArrow=oval;dashed=1;html=1;startArrow=none;startFill=0;endFill=0;" edge="1" parent="1">
                    <mxGeometry width="50" height="50" relative="1" as="geometry">
                        <mxPoint x="200" y="400" as="sourcePoint"/>
                        <mxPoint x="200" y="320" as="targetPoint"/>
                    </mxGeometry>
                </mxCell>
                <mxCell id="20" value="reset" style="text;html=1;align=center;verticalAlign=middle;resizable=0;points=[];autosize=1;strokeColor=none;fillColor=none;fontSize=14;fontFamily=Lucida Console;" vertex="1" parent="1">
                    <mxGeometry x="190" y="368" width="70" height="30" as="geometry"/>
                </mxCell>
                <mxCell id="21" value="01" style="text;html=1;align=center;verticalAlign=middle;whiteSpace=wrap;rounded=0;fontSize=16;fontFamily=Lucida Console;fontColor=#999999;" vertex="1" parent="1">
                    <mxGeometry x="290" y="410" width="60" height="30" as="geometry"/>
                </mxCell>
                <mxCell id="22" value="10" style="text;html=1;align=center;verticalAlign=middle;whiteSpace=wrap;rounded=0;fontSize=16;fontFamily=Lucida Console;fontColor=#999999;" vertex="1" parent="1">
                    <mxGeometry x="370" y="410" width="60" height="30" as="geometry"/>
                </mxCell>
                <mxCell id="23" value="00" style="text;html=1;align=center;verticalAlign=middle;whiteSpace=wrap;rounded=0;fontSize=16;fontFamily=Lucida Console;fontColor=#999999;" vertex="1" parent="1">
                    <mxGeometry x="450" y="410" width="60" height="30" as="geometry"/>
                </mxCell>
                <mxCell id="24" value="01" style="text;html=1;align=center;verticalAlign=middle;whiteSpace=wrap;rounded=0;fontSize=16;fontFamily=Lucida Console;fontColor=#999999;" vertex="1" parent="1">
                    <mxGeometry x="530" y="410" width="60" height="30" as="geometry"/>
                </mxCell>
                <mxCell id="25" value="10" style="text;html=1;align=center;verticalAlign=middle;whiteSpace=wrap;rounded=0;fontSize=16;fontFamily=Lucida Console;fontColor=#999999;" vertex="1" parent="1">
                    <mxGeometry x="610" y="410" width="60" height="30" as="geometry"/>
                </mxCell>
                <mxCell id="26" value="00" style="text;html=1;align=center;verticalAlign=middle;whiteSpace=wrap;rounded=0;fontSize=16;fontFamily=Lucida Console;fontColor=#999999;" vertex="1" parent="1">
                    <mxGeometry x="690" y="410" width="60" height="30" as="geometry"/>
                </mxCell>
                <mxCell id="27" value="" style="endArrow=none;html=1;rounded=0;curved=0;" edge="1" parent="1">
                    <mxGeometry width="50" height="50" relative="1" as="geometry">
                        <mxPoint x="160" y="520" as="sourcePoint"/>
                        <mxPoint x="740" y="520" as="targetPoint"/>
                        <Array as="points">
                            <mxPoint x="365" y="520"/>
                            <mxPoint x="365" y="480"/>
                            <mxPoint x="445" y="480"/>
                            <mxPoint x="445" y="520"/>
                            <mxPoint x="605" y="520"/>
                            <mxPoint x="605" y="480"/>
                            <mxPoint x="685" y="480"/>
                            <mxPoint x="685" y="520"/>
                        </Array>
                    </mxGeometry>
                </mxCell>
                <mxCell id="28" value="" style="endArrow=none;dashed=1;html=1;" edge="1" parent="1">
                    <mxGeometry width="50" height="50" relative="1" as="geometry">
                        <mxPoint x="280" y="400" as="sourcePoint"/>
                        <mxPoint x="280" y="290" as="targetPoint"/>
                    </mxGeometry>
                </mxCell>
                <mxCell id="29" value="" style="endArrow=none;dashed=1;html=1;" edge="1" parent="1">
                    <mxGeometry width="50" height="50" relative="1" as="geometry">
                        <mxPoint x="360" y="398" as="sourcePoint"/>
                        <mxPoint x="360" y="288" as="targetPoint"/>
                    </mxGeometry>
                </mxCell>
                <mxCell id="30" value="" style="endArrow=none;dashed=1;html=1;" edge="1" parent="1">
                    <mxGeometry width="50" height="50" relative="1" as="geometry">
                        <mxPoint x="440" y="398" as="sourcePoint"/>
                        <mxPoint x="440" y="288" as="targetPoint"/>
                    </mxGeometry>
                </mxCell>
                <mxCell id="31" value="" style="endArrow=none;dashed=1;html=1;" edge="1" parent="1">
                    <mxGeometry width="50" height="50" relative="1" as="geometry">
                        <mxPoint x="520" y="398" as="sourcePoint"/>
                        <mxPoint x="520" y="288" as="targetPoint"/>
                    </mxGeometry>
                </mxCell>
                <mxCell id="32" value="" style="endArrow=classic;html=1;strokeWidth=2;" edge="1" parent="1">
                    <mxGeometry width="50" height="50" relative="1" as="geometry">
                        <mxPoint x="200" y="240" as="sourcePoint"/>
                        <mxPoint x="200" y="280" as="targetPoint"/>
                    </mxGeometry>
                </mxCell>
                <mxCell id="33" value="" style="endArrow=classic;html=1;strokeWidth=2;" edge="1" parent="1">
                    <mxGeometry width="50" height="50" relative="1" as="geometry">
                        <mxPoint x="280" y="240" as="sourcePoint"/>
                        <mxPoint x="280" y="280" as="targetPoint"/>
                    </mxGeometry>
                </mxCell>
                <mxCell id="34" value="" style="endArrow=classic;html=1;strokeWidth=2;" edge="1" parent="1">
                    <mxGeometry width="50" height="50" relative="1" as="geometry">
                        <mxPoint x="360" y="240" as="sourcePoint"/>
                        <mxPoint x="360" y="280" as="targetPoint"/>
                    </mxGeometry>
                </mxCell>
                <mxCell id="35" value="" style="endArrow=classic;html=1;strokeWidth=2;" edge="1" parent="1">
                    <mxGeometry width="50" height="50" relative="1" as="geometry">
                        <mxPoint x="440" y="240" as="sourcePoint"/>
                        <mxPoint x="440" y="280" as="targetPoint"/>
                    </mxGeometry>
                </mxCell>
                <mxCell id="36" value="clock" style="text;html=1;align=center;verticalAlign=middle;resizable=0;points=[];autosize=1;strokeColor=none;fillColor=none;fontSize=14;fontFamily=Lucida Console;" vertex="1" parent="1">
                    <mxGeometry x="80" y="250" width="70" height="30" as="geometry"/>
                </mxCell>
                <mxCell id="37" value="reset" style="text;html=1;align=center;verticalAlign=middle;resizable=0;points=[];autosize=1;strokeColor=none;fillColor=none;fontSize=14;fontFamily=Lucida Console;" vertex="1" parent="1">
                    <mxGeometry x="80" y="330" width="70" height="30" as="geometry"/>
                </mxCell>
                <mxCell id="38" value="count" style="text;html=1;align=center;verticalAlign=middle;resizable=0;points=[];autosize=1;strokeColor=none;fillColor=none;fontSize=14;fontFamily=Lucida Console;fontColor=#999999;" vertex="1" parent="1">
                    <mxGeometry x="80" y="410" width="70" height="30" as="geometry"/>
                </mxCell>
                <mxCell id="39" value="pulse" style="text;html=1;align=center;verticalAlign=middle;resizable=0;points=[];autosize=1;strokeColor=none;fillColor=none;fontSize=14;fontFamily=Lucida Console;" vertex="1" parent="1">
                    <mxGeometry x="85" y="490" width="70" height="30" as="geometry"/>
                </mxCell>
                <mxCell id="40" value="" style="endArrow=classic;html=1;strokeWidth=2;" edge="1" parent="1">
                    <mxGeometry width="50" height="50" relative="1" as="geometry">
                        <mxPoint x="520" y="240" as="sourcePoint"/>
                        <mxPoint x="520" y="280" as="targetPoint"/>
                    </mxGeometry>
                </mxCell>
                <mxCell id="41" value="" style="endArrow=classic;html=1;strokeWidth=2;" edge="1" parent="1">
                    <mxGeometry width="50" height="50" relative="1" as="geometry">
                        <mxPoint x="600" y="240" as="sourcePoint"/>
                        <mxPoint x="600" y="280" as="targetPoint"/>
                    </mxGeometry>
                </mxCell>
                <mxCell id="42" value="" style="endArrow=classic;html=1;strokeWidth=2;" edge="1" parent="1">
                    <mxGeometry width="50" height="50" relative="1" as="geometry">
                        <mxPoint x="680" y="240" as="sourcePoint"/>
                        <mxPoint x="680" y="280" as="targetPoint"/>
                    </mxGeometry>
                </mxCell>
                <mxCell id="43" value="" style="endArrow=none;dashed=1;html=1;" edge="1" parent="1">
                    <mxGeometry width="50" height="50" relative="1" as="geometry">
                        <mxPoint x="600" y="398" as="sourcePoint"/>
                        <mxPoint x="600" y="288" as="targetPoint"/>
                    </mxGeometry>
                </mxCell>
                <mxCell id="44" value="" style="endArrow=none;dashed=1;html=1;" edge="1" parent="1">
                    <mxGeometry width="50" height="50" relative="1" as="geometry">
                        <mxPoint x="680" y="398" as="sourcePoint"/>
                        <mxPoint x="680" y="288" as="targetPoint"/>
                    </mxGeometry>
                </mxCell>
                <mxCell id="46" value="" style="endArrow=none;dashed=1;html=1;" edge="1" parent="1">
                    <mxGeometry width="50" height="50" relative="1" as="geometry">
                        <mxPoint x="365" y="475" as="sourcePoint"/>
                        <mxPoint x="365" y="445" as="targetPoint"/>
                    </mxGeometry>
                </mxCell>
                <mxCell id="47" value="" style="endArrow=none;dashed=1;html=1;" edge="1" parent="1">
                    <mxGeometry width="50" height="50" relative="1" as="geometry">
                        <mxPoint x="445" y="475" as="sourcePoint"/>
                        <mxPoint x="445" y="445" as="targetPoint"/>
                    </mxGeometry>
                </mxCell>
                <mxCell id="48" value="" style="endArrow=none;dashed=1;html=1;" edge="1" parent="1">
                    <mxGeometry width="50" height="50" relative="1" as="geometry">
                        <mxPoint x="604.76" y="475" as="sourcePoint"/>
                        <mxPoint x="604.76" y="445" as="targetPoint"/>
                    </mxGeometry>
                </mxCell>
                <mxCell id="49" value="" style="endArrow=none;dashed=1;html=1;" edge="1" parent="1">
                    <mxGeometry width="50" height="50" relative="1" as="geometry">
                        <mxPoint x="684.76" y="475" as="sourcePoint"/>
                        <mxPoint x="684.76" y="445" as="targetPoint"/>
                    </mxGeometry>
                </mxCell>
            </root>
        </mxGraphModel>
    </diagram>
</mxfile>